<svg xmlns="http://www.w3.org/2000/svg" xmlns:xlink="http://www.w3.org/1999/xlink" id="exportSvg" width="334" height="625"><defs/><g><g id="__svelte-dw-svg" clip-path="url(#rect-mask-c-WIDgXXqWvw3cjmh3imv)"><clipPath id="rect-mask-c-WIDgXXqWvw3cjmh3imv"><rect x="0" y="0" width="334" height="591"/></clipPath><g id="container-svg container-body-svg datawrapper-p7wPV-1gvfeww-svg"><g id="container-svg container-bodyTop-svg datawrapper-p7wPV-lmtz6e-svg"><g id="container-svg container-bodyCenter-svg datawrapper-p7wPV-1fgvipr-svg"><g id="chart-svg"><g id="table-svg"><g id="tbody-svg"><g id="row-svg" clip-path="url(#rect-mask-kTIXMZaxuB2UXVtBGM8rR)"><clipPath id="rect-mask-kTIXMZaxuB2UXVtBGM8rR"><rect x="0" y="46" width="334" height="26"/></clipPath><g id="cell-svg"><text transform="translate(110.40625, 46)" style="text-anchor: end;"><tspan fill="rgb(24,24,24)" x="0" y="19" style="font-family: Roboto; font-weight: 300; font-stretch: 100%; font-size: 14px;">ai2html</tspan></text></g><g id="cell-svg"><rect width="69.1875" height="26" transform="translate(126.40625, 46)" fill="rgb(255,255,255)" style="fill: rgb(255, 255, 255);"/></g><g id="cell-svg"><rect width="69.1875" height="26" transform="translate(195.59375, 46)" fill="rgb(255,255,255)" style="fill: rgb(255, 255, 255);"/></g><g id="cell-svg"><rect width="69.21875" height="26" transform="translate(264.78125, 46)" fill="rgb(86,166,239)" style="fill: rgb(86, 166, 239);"/></g></g><g id="row-svg" clip-path="url(#rect-mask-1IBZWJ3MBDpAH-4nOJhlh)"><clipPath id="rect-mask-1IBZWJ3MBDpAH-4nOJhlh"><rect x="0" y="72" width="334" height="27"/></clipPath><rect width="334" height="27" transform="translate(0, 72)" fill="rgba(0,0,0,0.027)" style="fill: rgb(0, 0, 0); fill-opacity: 0.027;"/><g id="cell-svg"><text transform="translate(110.40625, 72)" style="text-anchor: end;"><tspan fill="rgb(24,24,24)" x="0" y="20" style="font-family: Roboto; font-weight: 300; font-stretch: 100%; font-size: 14px;">d3</tspan></text></g><g id="cell-svg"><rect width="69.1875" height="27" transform="translate(126.40625, 72)" fill="rgb(255,255,255)" style="fill: rgb(255, 255, 255);"/><path d="M 126.40625 72.5 h 69.1875" style="fill: none; stroke-width: 1; stroke: rgba(0, 0, 0, 0.067);"/></g><g id="cell-svg"><rect width="69.1875" height="27" transform="translate(195.59375, 72)" fill="rgb(86,166,239)" style="fill: rgb(86, 166, 239);"/><path d="M 195.59375 72.5 h 69.1875" style="fill: none; stroke-width: 1; stroke: rgba(0, 0, 0, 0.067);"/></g><g id="cell-svg"><rect width="69.21875" height="27" transform="translate(264.78125, 72)" fill="rgb(86,166,239)" style="fill: rgb(86, 166, 239);"/><path d="M 264.78125 72.5 h 69.21875" style="fill: none; stroke-width: 1; stroke: rgba(0, 0, 0, 0.067);"/></g></g><g id="row-svg" clip-path="url(#rect-mask-hCI7iqVQlT3tjAdbdCnma)"><clipPath id="rect-mask-hCI7iqVQlT3tjAdbdCnma"><rect x="0" y="99" width="334" height="27"/></clipPath><g id="cell-svg"><text transform="translate(110.40625, 99)" style="text-anchor: end;"><tspan fill="rgb(24,24,24)" x="0" y="20" style="font-family: Roboto; font-weight: 300; font-stretch: 100%; font-size: 14px;">datawrapper</tspan></text></g><g id="cell-svg"><rect width="69.1875" height="27" transform="translate(126.40625, 99)" fill="rgb(255,255,255)" style="fill: rgb(255, 255, 255);"/><path d="M 126.40625 99.5 h 69.1875" style="fill: none; stroke-width: 1; stroke: rgba(0, 0, 0, 0.067);"/></g><g id="cell-svg"><rect width="69.1875" height="27" transform="translate(195.59375, 99)" fill="rgb(1,33,105)" style="fill: rgb(1, 33, 105);"/><path d="M 195.59375 99.5 h 69.1875" style="fill: none; stroke-width: 1; stroke: rgba(0, 0, 0, 0.067);"/></g><g id="cell-svg"><rect width="69.21875" height="27" transform="translate(264.78125, 99)" fill="rgb(255,255,255)" style="fill: rgb(255, 255, 255);"/><path d="M 264.78125 99.5 h 69.21875" style="fill: none; stroke-width: 1; stroke: rgba(0, 0, 0, 0.067);"/></g></g><g id="row-svg" clip-path="url(#rect-mask-O1-3O4z6NKSoLtNCgbdtY)"><clipPath id="rect-mask-O1-3O4z6NKSoLtNCgbdtY"><rect x="0" y="126" width="334" height="27"/></clipPath><rect width="334" height="27" transform="translate(0, 126)" fill="rgba(0,0,0,0.027)" style="fill: rgb(0, 0, 0); fill-opacity: 0.027;"/><g id="cell-svg"><text transform="translate(110.40625, 126)" style="text-anchor: end;"><tspan fill="rgb(24,24,24)" x="0" y="20" style="font-family: Roboto; font-weight: 300; font-stretch: 100%; font-size: 14px;">design</tspan></text></g><g id="cell-svg"><rect width="69.1875" height="27" transform="translate(126.40625, 126)" fill="rgb(10,131,223)" style="fill: rgb(10, 131, 223);"/><path d="M 126.40625 126.5 h 69.1875" style="fill: none; stroke-width: 1; stroke: rgba(0, 0, 0, 0.067);"/></g><g id="cell-svg"><rect width="69.1875" height="27" transform="translate(195.59375, 126)" fill="rgb(86,166,239)" style="fill: rgb(86, 166, 239);"/><path d="M 195.59375 126.5 h 69.1875" style="fill: none; stroke-width: 1; stroke: rgba(0, 0, 0, 0.067);"/></g><g id="cell-svg"><rect width="69.21875" height="27" transform="translate(264.78125, 126)" fill="rgb(86,166,239)" style="fill: rgb(86, 166, 239);"/><path d="M 264.78125 126.5 h 69.21875" style="fill: none; stroke-width: 1; stroke: rgba(0, 0, 0, 0.067);"/></g></g><g id="row-svg" clip-path="url(#rect-mask-EoCYmXWiL2JTDQqjiO-My)"><clipPath id="rect-mask-EoCYmXWiL2JTDQqjiO-My"><rect x="0" y="153" width="334" height="27"/></clipPath><g id="cell-svg"><text transform="translate(110.40625, 153)" style="text-anchor: end;"><tspan fill="rgb(24,24,24)" x="0" y="20" style="font-family: Roboto; font-weight: 300; font-stretch: 100%; font-size: 14px;">flourish</tspan></text></g><g id="cell-svg"><rect width="69.1875" height="27" transform="translate(126.40625, 153)" fill="rgb(10,131,223)" style="fill: rgb(10, 131, 223);"/><path d="M 126.40625 153.5 h 69.1875" style="fill: none; stroke-width: 1; stroke: rgba(0, 0, 0, 0.067);"/></g><g id="cell-svg"><rect width="69.1875" height="27" transform="translate(195.59375, 153)" fill="rgb(255,255,255)" style="fill: rgb(255, 255, 255);"/><path d="M 195.59375 153.5 h 69.1875" style="fill: none; stroke-width: 1; stroke: rgba(0, 0, 0, 0.067);"/></g><g id="cell-svg"><rect width="69.21875" height="27" transform="translate(264.78125, 153)" fill="rgb(255,255,255)" style="fill: rgb(255, 255, 255);"/><path d="M 264.78125 153.5 h 69.21875" style="fill: none; stroke-width: 1; stroke: rgba(0, 0, 0, 0.067);"/></g></g><g id="row-svg" clip-path="url(#rect-mask-u5aHl3mp5O08KaixP3KLC)"><clipPath id="rect-mask-u5aHl3mp5O08KaixP3KLC"><rect x="0" y="180" width="334" height="27"/></clipPath><rect width="334" height="27" transform="translate(0, 180)" fill="rgba(0,0,0,0.027)" style="fill: rgb(0, 0, 0); fill-opacity: 0.027;"/><g id="cell-svg"><text transform="translate(110.40625, 180)" style="text-anchor: end;"><tspan fill="rgb(24,24,24)" x="0" y="20" style="font-family: Roboto; font-weight: 300; font-stretch: 100%; font-size: 14px;">geojson.io</tspan></text></g><g id="cell-svg"><rect width="69.1875" height="27" transform="translate(126.40625, 180)" fill="rgb(167,199,233)" style="fill: rgb(167, 199, 233);"/><path d="M 126.40625 180.5 h 69.1875" style="fill: none; stroke-width: 1; stroke: rgba(0, 0, 0, 0.067);"/></g><g id="cell-svg"><rect width="69.1875" height="27" transform="translate(195.59375, 180)" fill="rgb(255,255,255)" style="fill: rgb(255, 255, 255);"/><path d="M 195.59375 180.5 h 69.1875" style="fill: none; stroke-width: 1; stroke: rgba(0, 0, 0, 0.067);"/></g><g id="cell-svg"><rect width="69.21875" height="27" transform="translate(264.78125, 180)" fill="rgb(167,199,233)" style="fill: rgb(167, 199, 233);"/><path d="M 264.78125 180.5 h 69.21875" style="fill: none; stroke-width: 1; stroke: rgba(0, 0, 0, 0.067);"/></g></g><g id="row-svg" clip-path="url(#rect-mask-rg31yGGY-Fqn2Pjp4UmCX)"><clipPath id="rect-mask-rg31yGGY-Fqn2Pjp4UmCX"><rect x="0" y="207" width="334" height="27"/></clipPath><g id="cell-svg"><text transform="translate(110.40625, 207)" style="text-anchor: end;"><tspan fill="rgb(24,24,24)" x="0" y="20" style="font-family: Roboto; font-weight: 300; font-stretch: 100%; font-size: 14px;">illustrator</tspan></text></g><g id="cell-svg"><rect width="69.1875" height="27" transform="translate(126.40625, 207)" fill="rgb(10,131,223)" style="fill: rgb(10, 131, 223);"/><path d="M 126.40625 207.5 h 69.1875" style="fill: none; stroke-width: 1; stroke: rgba(0, 0, 0, 0.067);"/></g><g id="cell-svg"><rect width="69.1875" height="27" transform="translate(195.59375, 207)" fill="rgb(10,131,223)" style="fill: rgb(10, 131, 223);"/><path d="M 195.59375 207.5 h 69.1875" style="fill: none; stroke-width: 1; stroke: rgba(0, 0, 0, 0.067);"/></g><g id="cell-svg"><rect width="69.21875" height="27" transform="translate(264.78125, 207)" fill="rgb(10,131,223)" style="fill: rgb(10, 131, 223);"/><path d="M 264.78125 207.5 h 69.21875" style="fill: none; stroke-width: 1; stroke: rgba(0, 0, 0, 0.067);"/></g></g><g id="row-svg" clip-path="url(#rect-mask-8Qy0tZZljzhoAtfmwTgaX)"><clipPath id="rect-mask-8Qy0tZZljzhoAtfmwTgaX"><rect x="0" y="234" width="334" height="27"/></clipPath><rect width="334" height="27" transform="translate(0, 234)" fill="rgba(0,0,0,0.027)" style="fill: rgb(0, 0, 0); fill-opacity: 0.027;"/><g id="cell-svg"><text transform="translate(110.40625, 234)" style="text-anchor: end;"><tspan fill="rgb(24,24,24)" x="0" y="20" style="font-family: Roboto; font-weight: 300; font-stretch: 100%; font-size: 14px;">javascript</tspan></text></g><g id="cell-svg"><rect width="69.1875" height="27" transform="translate(126.40625, 234)" fill="rgb(255,255,255)" style="fill: rgb(255, 255, 255);"/><path d="M 126.40625 234.5 h 69.1875" style="fill: none; stroke-width: 1; stroke: rgba(0, 0, 0, 0.067);"/></g><g id="cell-svg"><rect width="69.1875" height="27" transform="translate(195.59375, 234)" fill="rgb(86,166,239)" style="fill: rgb(86, 166, 239);"/><path d="M 195.59375 234.5 h 69.1875" style="fill: none; stroke-width: 1; stroke: rgba(0, 0, 0, 0.067);"/></g><g id="cell-svg"><rect width="69.21875" height="27" transform="translate(264.78125, 234)" fill="rgb(1,33,105)" style="fill: rgb(1, 33, 105);"/><path d="M 264.78125 234.5 h 69.21875" style="fill: none; stroke-width: 1; stroke: rgba(0, 0, 0, 0.067);"/></g></g><g id="row-svg" clip-path="url(#rect-mask-edAVYxkwlxrXnupw4V7BI)"><clipPath id="rect-mask-edAVYxkwlxrXnupw4V7BI"><rect x="0" y="261" width="334" height="27"/></clipPath><g id="cell-svg"><text transform="translate(110.40625, 261)" style="text-anchor: end;"><tspan fill="rgb(24,24,24)" x="0" y="20" style="font-family: Roboto; font-weight: 300; font-stretch: 100%; font-size: 14px;">llm</tspan></text></g><g id="cell-svg"><rect width="69.1875" height="27" transform="translate(126.40625, 261)" fill="rgb(10,131,223)" style="fill: rgb(10, 131, 223);"/><path d="M 126.40625 261.5 h 69.1875" style="fill: none; stroke-width: 1; stroke: rgba(0, 0, 0, 0.067);"/></g><g id="cell-svg"><rect width="69.1875" height="27" transform="translate(195.59375, 261)" fill="rgb(86,166,239)" style="fill: rgb(86, 166, 239);"/><path d="M 195.59375 261.5 h 69.1875" style="fill: none; stroke-width: 1; stroke: rgba(0, 0, 0, 0.067);"/></g><g id="cell-svg"><rect width="69.21875" height="27" transform="translate(264.78125, 261)" fill="rgb(86,166,239)" style="fill: rgb(86, 166, 239);"/><path d="M 264.78125 261.5 h 69.21875" style="fill: none; stroke-width: 1; stroke: rgba(0, 0, 0, 0.067);"/></g></g><g id="row-svg" clip-path="url(#rect-mask-oS3e188GKd5dhU4CJbuA-)"><clipPath id="rect-mask-oS3e188GKd5dhU4CJbuA-"><rect x="0" y="288" width="334" height="27"/></clipPath><rect width="334" height="27" transform="translate(0, 288)" fill="rgba(0,0,0,0.027)" style="fill: rgb(0, 0, 0); fill-opacity: 0.027;"/><g id="cell-svg"><text transform="translate(110.40625, 288)" style="text-anchor: end;"><tspan fill="rgb(24,24,24)" x="0" y="20" style="font-family: Roboto; font-weight: 300; font-stretch: 100%; font-size: 14px;">mapbox</tspan></text></g><g id="cell-svg"><rect width="69.1875" height="27" transform="translate(126.40625, 288)" fill="rgb(255,255,255)" style="fill: rgb(255, 255, 255);"/><path d="M 126.40625 288.5 h 69.1875" style="fill: none; stroke-width: 1; stroke: rgba(0, 0, 0, 0.067);"/></g><g id="cell-svg"><rect width="69.1875" height="27" transform="translate(195.59375, 288)" fill="rgb(1,33,105)" style="fill: rgb(1, 33, 105);"/><path d="M 195.59375 288.5 h 69.1875" style="fill: none; stroke-width: 1; stroke: rgba(0, 0, 0, 0.067);"/></g><g id="cell-svg"/></g><g id="row-svg" clip-path="url(#rect-mask-sLkYrr40SPkResBpZB-NF)"><clipPath id="rect-mask-sLkYrr40SPkResBpZB-NF"><rect x="0" y="315" width="334" height="27"/></clipPath><g id="cell-svg"><text transform="translate(110.40625, 315)" style="text-anchor: end;"><tspan fill="rgb(24,24,24)" x="0" y="20" style="font-family: Roboto; font-weight: 300; font-stretch: 100%; font-size: 14px;">markdown</tspan></text></g><g id="cell-svg"><rect width="69.1875" height="27" transform="translate(126.40625, 315)" fill="rgb(1,33,105)" style="fill: rgb(1, 33, 105);"/><path d="M 126.40625 315.5 h 69.1875" style="fill: none; stroke-width: 1; stroke: rgba(0, 0, 0, 0.067);"/></g><g id="cell-svg"><rect width="69.1875" height="27" transform="translate(195.59375, 315)" fill="rgb(167,199,233)" style="fill: rgb(167, 199, 233);"/><path d="M 195.59375 315.5 h 69.1875" style="fill: none; stroke-width: 1; stroke: rgba(0, 0, 0, 0.067);"/></g><g id="cell-svg"><rect width="69.21875" height="27" transform="translate(264.78125, 315)" fill="rgb(167,199,233)" style="fill: rgb(167, 199, 233);"/><path d="M 264.78125 315.5 h 69.21875" style="fill: none; stroke-width: 1; stroke: rgba(0, 0, 0, 0.067);"/></g></g><g id="row-svg" clip-path="url(#rect-mask-_qU77CBctLCUVI85q9pR-)"><clipPath id="rect-mask-_qU77CBctLCUVI85q9pR-"><rect x="0" y="342" width="334" height="27"/></clipPath><rect width="334" height="27" transform="translate(0, 342)" fill="rgba(0,0,0,0.027)" style="fill: rgb(0, 0, 0); fill-opacity: 0.027;"/><g id="cell-svg"><text transform="translate(110.40625, 342)" style="text-anchor: end;"><tspan fill="rgb(24,24,24)" x="0" y="20" style="font-family: Roboto; font-weight: 300; font-stretch: 100%; font-size: 14px;">observable</tspan></text></g><g id="cell-svg"><rect width="69.1875" height="27" transform="translate(126.40625, 342)" fill="rgb(255,255,255)" style="fill: rgb(255, 255, 255);"/><path d="M 126.40625 342.5 h 69.1875" style="fill: none; stroke-width: 1; stroke: rgba(0, 0, 0, 0.067);"/></g><g id="cell-svg"><rect width="69.1875" height="27" transform="translate(195.59375, 342)" fill="rgb(255,255,255)" style="fill: rgb(255, 255, 255);"/><path d="M 195.59375 342.5 h 69.1875" style="fill: none; stroke-width: 1; stroke: rgba(0, 0, 0, 0.067);"/></g><g id="cell-svg"><rect width="69.21875" height="27" transform="translate(264.78125, 342)" fill="rgb(167,199,233)" style="fill: rgb(167, 199, 233);"/><path d="M 264.78125 342.5 h 69.21875" style="fill: none; stroke-width: 1; stroke: rgba(0, 0, 0, 0.067);"/></g></g><g id="row-svg" clip-path="url(#rect-mask-tjP2A4IfOALvP-m9251eL)"><clipPath id="rect-mask-tjP2A4IfOALvP-m9251eL"><rect x="0" y="369" width="334" height="27"/></clipPath><g id="cell-svg"><text transform="translate(110.40625, 369)" style="text-anchor: end;"><tspan fill="rgb(24,24,24)" x="0" y="20" style="font-family: Roboto; font-weight: 300; font-stretch: 100%; font-size: 14px;">pandas</tspan></text></g><g id="cell-svg"><rect width="69.1875" height="27" transform="translate(126.40625, 369)" fill="rgb(1,33,105)" style="fill: rgb(1, 33, 105);"/><path d="M 126.40625 369.5 h 69.1875" style="fill: none; stroke-width: 1; stroke: rgba(0, 0, 0, 0.067);"/></g><g id="cell-svg"><rect width="69.1875" height="27" transform="translate(195.59375, 369)" fill="rgb(255,255,255)" style="fill: rgb(255, 255, 255);"/><path d="M 195.59375 369.5 h 69.1875" style="fill: none; stroke-width: 1; stroke: rgba(0, 0, 0, 0.067);"/></g><g id="cell-svg"><rect width="69.21875" height="27" transform="translate(264.78125, 369)" fill="rgb(255,255,255)" style="fill: rgb(255, 255, 255);"/><path d="M 264.78125 369.5 h 69.21875" style="fill: none; stroke-width: 1; stroke: rgba(0, 0, 0, 0.067);"/></g></g><g id="row-svg" clip-path="url(#rect-mask-t-dGXWPs78XXN0UczELWx)"><clipPath id="rect-mask-t-dGXWPs78XXN0UczELWx"><rect x="0" y="396" width="334" height="27"/></clipPath><rect width="334" height="27" transform="translate(0, 396)" fill="rgba(0,0,0,0.027)" style="fill: rgb(0, 0, 0); fill-opacity: 0.027;"/><g id="cell-svg"><text transform="translate(110.40625, 396)" style="text-anchor: end;"><tspan fill="rgb(24,24,24)" x="0" y="20" style="font-family: Roboto; font-weight: 300; font-stretch: 100%; font-size: 14px;">python</tspan></text></g><g id="cell-svg"><rect width="69.1875" height="27" transform="translate(126.40625, 396)" fill="rgb(1,33,105)" style="fill: rgb(1, 33, 105);"/><path d="M 126.40625 396.5 h 69.1875" style="fill: none; stroke-width: 1; stroke: rgba(0, 0, 0, 0.067);"/></g><g id="cell-svg"><rect width="69.1875" height="27" transform="translate(195.59375, 396)" fill="rgb(255,255,255)" style="fill: rgb(255, 255, 255);"/><path d="M 195.59375 396.5 h 69.1875" style="fill: none; stroke-width: 1; stroke: rgba(0, 0, 0, 0.067);"/></g><g id="cell-svg"><rect width="69.21875" height="27" transform="translate(264.78125, 396)" fill="rgb(242,242,242)" style="fill: rgb(242, 242, 242);"/><path d="M 264.78125 396.5 h 69.21875" style="fill: none; stroke-width: 1; stroke: rgba(0, 0, 0, 0.067);"/></g></g><g id="row-svg" clip-path="url(#rect-mask-pCWPRLQFtwLJ9DS14yy9c)"><clipPath id="rect-mask-pCWPRLQFtwLJ9DS14yy9c"><rect x="0" y="423" width="334" height="27"/></clipPath><g id="cell-svg"><text transform="translate(110.40625, 423)" style="text-anchor: end;"><tspan fill="rgb(24,24,24)" x="0" y="20" style="font-family: Roboto; font-weight: 300; font-stretch: 100%; font-size: 14px;">qgis</tspan></text></g><g id="cell-svg"><rect width="69.1875" height="27" transform="translate(126.40625, 423)" fill="rgb(86,166,239)" style="fill: rgb(86, 166, 239);"/><path d="M 126.40625 423.5 h 69.1875" style="fill: none; stroke-width: 1; stroke: rgba(0, 0, 0, 0.067);"/></g><g id="cell-svg"><rect width="69.1875" height="27" transform="translate(195.59375, 423)" fill="rgb(255,255,255)" style="fill: rgb(255, 255, 255);"/><path d="M 195.59375 423.5 h 69.1875" style="fill: none; stroke-width: 1; stroke: rgba(0, 0, 0, 0.067);"/></g><g id="cell-svg"><rect width="69.21875" height="27" transform="translate(264.78125, 423)" fill="rgb(167,199,233)" style="fill: rgb(167, 199, 233);"/><path d="M 264.78125 423.5 h 69.21875" style="fill: none; stroke-width: 1; stroke: rgba(0, 0, 0, 0.067);"/></g></g><g id="row-svg" clip-path="url(#rect-mask-DjYdlZYPdFdnAg6VjpXVe)"><clipPath id="rect-mask-DjYdlZYPdFdnAg6VjpXVe"><rect x="0" y="450" width="334" height="27"/></clipPath><rect width="334" height="27" transform="translate(0, 450)" fill="rgba(0,0,0,0.027)" style="fill: rgb(0, 0, 0); fill-opacity: 0.027;"/><g id="cell-svg"><text transform="translate(110.40625, 450)" style="text-anchor: end;"><tspan fill="rgb(24,24,24)" x="0" y="20" style="font-family: Roboto; font-weight: 300; font-stretch: 100%; font-size: 14px;">r</tspan></text></g><g id="cell-svg"><rect width="69.1875" height="27" transform="translate(126.40625, 450)" fill="rgb(255,255,255)" style="fill: rgb(255, 255, 255);"/><path d="M 126.40625 450.5 h 69.1875" style="fill: none; stroke-width: 1; stroke: rgba(0, 0, 0, 0.067);"/></g><g id="cell-svg"><rect width="69.1875" height="27" transform="translate(195.59375, 450)" fill="rgb(1,33,105)" style="fill: rgb(1, 33, 105);"/><path d="M 195.59375 450.5 h 69.1875" style="fill: none; stroke-width: 1; stroke: rgba(0, 0, 0, 0.067);"/></g><g id="cell-svg"><rect width="69.21875" height="27" transform="translate(264.78125, 450)" fill="rgb(167,199,233)" style="fill: rgb(167, 199, 233);"/><path d="M 264.78125 450.5 h 69.21875" style="fill: none; stroke-width: 1; stroke: rgba(0, 0, 0, 0.067);"/></g></g><g id="row-svg" clip-path="url(#rect-mask-AHLQBsDOvCsOOJrSfdcgK)"><clipPath id="rect-mask-AHLQBsDOvCsOOJrSfdcgK"><rect x="0" y="477" width="334" height="27"/></clipPath><g id="cell-svg"><text transform="translate(110.40625, 477)" style="text-anchor: end;"><tspan fill="rgb(24,24,24)" x="0" y="20" style="font-family: Roboto; font-weight: 300; font-stretch: 100%; font-size: 14px;">scraping</tspan></text></g><g id="cell-svg"><rect width="69.1875" height="27" transform="translate(126.40625, 477)" fill="rgb(255,255,255)" style="fill: rgb(255, 255, 255);"/><path d="M 126.40625 477.5 h 69.1875" style="fill: none; stroke-width: 1; stroke: rgba(0, 0, 0, 0.067);"/></g><g id="cell-svg"><rect width="69.1875" height="27" transform="translate(195.59375, 477)" fill="rgb(86,166,239)" style="fill: rgb(86, 166, 239);"/><path d="M 195.59375 477.5 h 69.1875" style="fill: none; stroke-width: 1; stroke: rgba(0, 0, 0, 0.067);"/></g><g id="cell-svg"><rect width="69.21875" height="27" transform="translate(264.78125, 477)" fill="rgb(242,242,242)" style="fill: rgb(242, 242, 242);"/><path d="M 264.78125 477.5 h 69.21875" style="fill: none; stroke-width: 1; stroke: rgba(0, 0, 0, 0.067);"/></g></g><g id="row-svg" clip-path="url(#rect-mask-snDgD-n44DOZOfpjuPuNi)"><clipPath id="rect-mask-snDgD-n44DOZOfpjuPuNi"><rect x="0" y="504" width="334" height="27"/></clipPath><rect width="334" height="27" transform="translate(0, 504)" fill="rgba(0,0,0,0.027)" style="fill: rgb(0, 0, 0); fill-opacity: 0.027;"/><g id="cell-svg"><text transform="translate(110.40625, 504)" style="text-anchor: end;"><tspan fill="rgb(24,24,24)" x="0" y="20" style="font-family: Roboto; font-weight: 300; font-stretch: 100%; font-size: 14px;">scrollytelling</tspan></text></g><g id="cell-svg"><rect width="69.1875" height="27" transform="translate(126.40625, 504)" fill="rgb(86,166,239)" style="fill: rgb(86, 166, 239);"/><path d="M 126.40625 504.5 h 69.1875" style="fill: none; stroke-width: 1; stroke: rgba(0, 0, 0, 0.067);"/></g><g id="cell-svg"><rect width="69.1875" height="27" transform="translate(195.59375, 504)" fill="rgb(255,255,255)" style="fill: rgb(255, 255, 255);"/><path d="M 195.59375 504.5 h 69.1875" style="fill: none; stroke-width: 1; stroke: rgba(0, 0, 0, 0.067);"/></g><g id="cell-svg"><rect width="69.21875" height="27" transform="translate(264.78125, 504)" fill="rgb(10,131,223)" style="fill: rgb(10, 131, 223);"/><path d="M 264.78125 504.5 h 69.21875" style="fill: none; stroke-width: 1; stroke: rgba(0, 0, 0, 0.067);"/></g></g><g id="row-svg" clip-path="url(#rect-mask-OuJCAGc-KfbFW1KmYymWV)"><clipPath id="rect-mask-OuJCAGc-KfbFW1KmYymWV"><rect x="0" y="531" width="334" height="27"/></clipPath><g id="cell-svg"><text transform="translate(110.40625, 531)" style="text-anchor: end;"><tspan fill="rgb(24,24,24)" x="0" y="20" style="font-family: Roboto; font-weight: 300; font-stretch: 100%; font-size: 14px;">svg</tspan></text></g><g id="cell-svg"><rect width="69.1875" height="27" transform="translate(126.40625, 531)" fill="rgb(255,255,255)" style="fill: rgb(255, 255, 255);"/><path d="M 126.40625 531.5 h 69.1875" style="fill: none; stroke-width: 1; stroke: rgba(0, 0, 0, 0.067);"/></g><g id="cell-svg"><rect width="69.1875" height="27" transform="translate(195.59375, 531)" fill="rgb(167,199,233)" style="fill: rgb(167, 199, 233);"/><path d="M 195.59375 531.5 h 69.1875" style="fill: none; stroke-width: 1; stroke: rgba(0, 0, 0, 0.067);"/></g><g id="cell-svg"><rect width="69.21875" height="27" transform="translate(264.78125, 531)" fill="rgb(10,131,223)" style="fill: rgb(10, 131, 223);"/><path d="M 264.78125 531.5 h 69.21875" style="fill: none; stroke-width: 1; stroke: rgba(0, 0, 0, 0.067);"/></g></g><g id="borders-svg"><line x1="0" x2="126.40625" y1="72" y2="72" style="fill: none; stroke-width: 1; stroke: rgba(0, 0, 0, 0.067);"/><line x1="126.40625" x2="195.59375" y1="72" y2="72" style="fill: none; stroke-width: 1; stroke: rgba(0, 0, 0, 0.067);"/><line x1="195.59375" x2="264.78125" y1="72" y2="72" style="fill: none; stroke-width: 1; stroke: rgba(0, 0, 0, 0.067);"/><line x1="264.78125" x2="334" y1="72" y2="72" style="fill: none; stroke-width: 1; stroke: rgba(0, 0, 0, 0.067);"/><line x1="0" x2="126.40625" y1="99" y2="99" style="fill: none; stroke-width: 1; stroke: rgba(0, 0, 0, 0.067);"/><line x1="126.40625" x2="195.59375" y1="99" y2="99" style="fill: none; stroke-width: 1; stroke: rgba(0, 0, 0, 0.067);"/><line x1="195.59375" x2="264.78125" y1="99" y2="99" style="fill: none; stroke-width: 1; stroke: rgba(0, 0, 0, 0.067);"/><line x1="264.78125" x2="334" y1="99" y2="99" style="fill: none; stroke-width: 1; stroke: rgba(0, 0, 0, 0.067);"/><line x1="0" x2="126.40625" y1="126" y2="126" style="fill: none; stroke-width: 1; stroke: rgba(0, 0, 0, 0.067);"/><line x1="126.40625" x2="195.59375" y1="126" y2="126" style="fill: none; stroke-width: 1; stroke: rgba(0, 0, 0, 0.067);"/><line x1="195.59375" x2="264.78125" y1="126" y2="126" style="fill: none; stroke-width: 1; stroke: rgba(0, 0, 0, 0.067);"/><line x1="264.78125" x2="334" y1="126" y2="126" style="fill: none; stroke-width: 1; stroke: rgba(0, 0, 0, 0.067);"/><line x1="0" x2="126.40625" y1="153" y2="153" style="fill: none; stroke-width: 1; stroke: rgba(0, 0, 0, 0.067);"/><line x1="126.40625" x2="195.59375" y1="153" y2="153" style="fill: none; stroke-width: 1; stroke: rgba(0, 0, 0, 0.067);"/><line x1="195.59375" x2="264.78125" y1="153" y2="153" style="fill: none; stroke-width: 1; stroke: rgba(0, 0, 0, 0.067);"/><line x1="264.78125" x2="334" y1="153" y2="153" style="fill: none; stroke-width: 1; stroke: rgba(0, 0, 0, 0.067);"/><line x1="0" x2="126.40625" y1="180" y2="180" style="fill: none; stroke-width: 1; stroke: rgba(0, 0, 0, 0.067);"/><line x1="126.40625" x2="195.59375" y1="180" y2="180" style="fill: none; stroke-width: 1; stroke: rgba(0, 0, 0, 0.067);"/><line x1="195.59375" x2="264.78125" y1="180" y2="180" style="fill: none; stroke-width: 1; stroke: rgba(0, 0, 0, 0.067);"/><line x1="264.78125" x2="334" y1="180" y2="180" style="fill: none; stroke-width: 1; stroke: rgba(0, 0, 0, 0.067);"/><line x1="0" x2="126.40625" y1="207" y2="207" style="fill: none; stroke-width: 1; stroke: rgba(0, 0, 0, 0.067);"/><line x1="126.40625" x2="195.59375" y1="207" y2="207" style="fill: none; stroke-width: 1; stroke: rgba(0, 0, 0, 0.067);"/><line x1="195.59375" x2="264.78125" y1="207" y2="207" style="fill: none; stroke-width: 1; stroke: rgba(0, 0, 0, 0.067);"/><line x1="264.78125" x2="334" y1="207" y2="207" style="fill: none; stroke-width: 1; stroke: rgba(0, 0, 0, 0.067);"/><line x1="0" x2="126.40625" y1="234" y2="234" style="fill: none; stroke-width: 1; stroke: rgba(0, 0, 0, 0.067);"/><line x1="126.40625" x2="195.59375" y1="234" y2="234" style="fill: none; stroke-width: 1; stroke: rgba(0, 0, 0, 0.067);"/><line x1="195.59375" x2="264.78125" y1="234" y2="234" style="fill: none; stroke-width: 1; stroke: rgba(0, 0, 0, 0.067);"/><line x1="264.78125" x2="334" y1="234" y2="234" style="fill: none; stroke-width: 1; stroke: rgba(0, 0, 0, 0.067);"/><line x1="0" x2="126.40625" y1="261" y2="261" style="fill: none; stroke-width: 1; stroke: rgba(0, 0, 0, 0.067);"/><line x1="126.40625" x2="195.59375" y1="261" y2="261" style="fill: none; stroke-width: 1; stroke: rgba(0, 0, 0, 0.067);"/><line x1="195.59375" x2="264.78125" y1="261" y2="261" style="fill: none; stroke-width: 1; stroke: rgba(0, 0, 0, 0.067);"/><line x1="264.78125" x2="334" y1="261" y2="261" style="fill: none; stroke-width: 1; stroke: rgba(0, 0, 0, 0.067);"/><line x1="0" x2="126.40625" y1="288" y2="288" style="fill: none; stroke-width: 1; stroke: rgba(0, 0, 0, 0.067);"/><line x1="126.40625" x2="195.59375" y1="288" y2="288" style="fill: none; stroke-width: 1; stroke: rgba(0, 0, 0, 0.067);"/><line x1="195.59375" x2="264.78125" y1="288" y2="288" style="fill: none; stroke-width: 1; stroke: rgba(0, 0, 0, 0.067);"/><line x1="264.78125" x2="334" y1="288" y2="288" style="fill: none; stroke-width: 1; stroke: rgba(0, 0, 0, 0.067);"/><line x1="0" x2="126.40625" y1="315" y2="315" style="fill: none; stroke-width: 1; stroke: rgba(0, 0, 0, 0.067);"/><line x1="126.40625" x2="195.59375" y1="315" y2="315" style="fill: none; stroke-width: 1; stroke: rgba(0, 0, 0, 0.067);"/><line x1="195.59375" x2="264.78125" y1="315" y2="315" style="fill: none; stroke-width: 1; stroke: rgba(0, 0, 0, 0.067);"/><line x1="264.78125" x2="334" y1="315" y2="315" style="fill: none; stroke-width: 1; stroke: rgba(0, 0, 0, 0.067);"/><line x1="0" x2="126.40625" y1="342" y2="342" style="fill: none; stroke-width: 1; stroke: rgba(0, 0, 0, 0.067);"/><line x1="126.40625" x2="195.59375" y1="342" y2="342" style="fill: none; stroke-width: 1; stroke: rgba(0, 0, 0, 0.067);"/><line x1="195.59375" x2="264.78125" y1="342" y2="342" style="fill: none; stroke-width: 1; stroke: rgba(0, 0, 0, 0.067);"/><line x1="264.78125" x2="334" y1="342" y2="342" style="fill: none; stroke-width: 1; stroke: rgba(0, 0, 0, 0.067);"/><line x1="0" x2="126.40625" y1="369" y2="369" style="fill: none; stroke-width: 1; stroke: rgba(0, 0, 0, 0.067);"/><line x1="126.40625" x2="195.59375" y1="369" y2="369" style="fill: none; stroke-width: 1; stroke: rgba(0, 0, 0, 0.067);"/><line x1="195.59375" x2="264.78125" y1="369" y2="369" style="fill: none; stroke-width: 1; stroke: rgba(0, 0, 0, 0.067);"/><line x1="264.78125" x2="334" y1="369" y2="369" style="fill: none; stroke-width: 1; stroke: rgba(0, 0, 0, 0.067);"/><line x1="0" x2="126.40625" y1="396" y2="396" style="fill: none; stroke-width: 1; stroke: rgba(0, 0, 0, 0.067);"/><line x1="126.40625" x2="195.59375" y1="396" y2="396" style="fill: none; stroke-width: 1; stroke: rgba(0, 0, 0, 0.067);"/><line x1="195.59375" x2="264.78125" y1="396" y2="396" style="fill: none; stroke-width: 1; stroke: rgba(0, 0, 0, 0.067);"/><line x1="264.78125" x2="334" y1="396" y2="396" style="fill: none; stroke-width: 1; stroke: rgba(0, 0, 0, 0.067);"/><line x1="0" x2="126.40625" y1="423" y2="423" style="fill: none; stroke-width: 1; stroke: rgba(0, 0, 0, 0.067);"/><line x1="126.40625" x2="195.59375" y1="423" y2="423" style="fill: none; stroke-width: 1; stroke: rgba(0, 0, 0, 0.067);"/><line x1="195.59375" x2="264.78125" y1="423" y2="423" style="fill: none; stroke-width: 1; stroke: rgba(0, 0, 0, 0.067);"/><line x1="264.78125" x2="334" y1="423" y2="423" style="fill: none; stroke-width: 1; stroke: rgba(0, 0, 0, 0.067);"/><line x1="0" x2="126.40625" y1="450" y2="450" style="fill: none; stroke-width: 1; stroke: rgba(0, 0, 0, 0.067);"/><line x1="126.40625" x2="195.59375" y1="450" y2="450" style="fill: none; stroke-width: 1; stroke: rgba(0, 0, 0, 0.067);"/><line x1="195.59375" x2="264.78125" y1="450" y2="450" style="fill: none; stroke-width: 1; stroke: rgba(0, 0, 0, 0.067);"/><line x1="264.78125" x2="334" y1="450" y2="450" style="fill: none; stroke-width: 1; stroke: rgba(0, 0, 0, 0.067);"/><line x1="0" x2="126.40625" y1="477" y2="477" style="fill: none; stroke-width: 1; stroke: rgba(0, 0, 0, 0.067);"/><line x1="126.40625" x2="195.59375" y1="477" y2="477" style="fill: none; stroke-width: 1; stroke: rgba(0, 0, 0, 0.067);"/><line x1="195.59375" x2="264.78125" y1="477" y2="477" style="fill: none; stroke-width: 1; stroke: rgba(0, 0, 0, 0.067);"/><line x1="264.78125" x2="334" y1="477" y2="477" style="fill: none; stroke-width: 1; stroke: rgba(0, 0, 0, 0.067);"/><line x1="0" x2="126.40625" y1="504" y2="504" style="fill: none; stroke-width: 1; stroke: rgba(0, 0, 0, 0.067);"/><line x1="126.40625" x2="195.59375" y1="504" y2="504" style="fill: none; stroke-width: 1; stroke: rgba(0, 0, 0, 0.067);"/><line x1="195.59375" x2="264.78125" y1="504" y2="504" style="fill: none; stroke-width: 1; stroke: rgba(0, 0, 0, 0.067);"/><line x1="264.78125" x2="334" y1="504" y2="504" style="fill: none; stroke-width: 1; stroke: rgba(0, 0, 0, 0.067);"/><line x1="0" x2="126.40625" y1="531" y2="531" style="fill: none; stroke-width: 1; stroke: rgba(0, 0, 0, 0.067);"/><line x1="126.40625" x2="195.59375" y1="531" y2="531" style="fill: none; stroke-width: 1; stroke: rgba(0, 0, 0, 0.067);"/><line x1="195.59375" x2="264.78125" y1="531" y2="531" style="fill: none; stroke-width: 1; stroke: rgba(0, 0, 0, 0.067);"/><line x1="264.78125" x2="334" y1="531" y2="531" style="fill: none; stroke-width: 1; stroke: rgba(0, 0, 0, 0.067);"/></g></g><g id="thead-svg"><g id="row-svg" clip-path="url(#rect-mask-Qf6VTOWQGA6mfxo9flMp_)"><clipPath id="rect-mask-Qf6VTOWQGA6mfxo9flMp_"><rect x="0" y="10" width="334" height="36"/></clipPath><g id="cell-svg"><text transform="translate(110.40625, 10)" style="text-anchor: end;"><tspan fill="rgb(24,24,24)" x="0" y="23.4" style="font-family: Roboto; font-weight: 700; font-stretch: 100%; font-size: 15.4px;">skill</tspan></text></g><g id="cell-svg"><text transform="translate(161, 10)" style="text-anchor: middle;"><tspan fill="rgb(24,24,24)" x="0" y="23.4" style="font-family: Roboto; font-weight: 700; font-stretch: 100%; font-size: 15.4px;">1</tspan></text></g><g id="cell-svg"><text transform="translate(230.1875, 10)" style="text-anchor: middle;"><tspan fill="rgb(24,24,24)" x="0" y="23.4" style="font-family: Roboto; font-weight: 700; font-stretch: 100%; font-size: 15.4px;">2</tspan></text></g><g id="cell-svg"><text transform="translate(307.390625, 10)" style="text-anchor: middle;"><tspan fill="rgb(24,24,24)" x="0" y="23.4" style="font-family: Roboto; font-weight: 700; font-stretch: 100%; font-size: 15.4px;">3</tspan></text></g></g><g id="borders-svg"><line x1="0" x2="126.40625" y1="46" y2="46" style="fill: none; stroke-width: 2; stroke: rgb(51, 51, 51);"/><line x1="126.40625" x2="195.59375" y1="46" y2="46" style="fill: none; stroke-width: 2; stroke: rgb(51, 51, 51);"/><line x1="195.59375" x2="264.78125" y1="46" y2="46" style="fill: none; stroke-width: 2; stroke: rgb(51, 51, 51);"/><line x1="264.78125" x2="334" y1="46" y2="46" style="fill: none; stroke-width: 2; stroke: rgb(51, 51, 51);"/></g></g><g id="group-svg" clip-path="url(#rect-mask-vYLPKBLahNdJsFn7RanC0)" transform="translate(68.01563, 23)"><clipPath id="rect-mask-vYLPKBLahNdJsFn7RanC0"><rect x="0" y="0" width="8" height="8"/></clipPath><path d="M0,8 L 4,0 L8,8 Z" transform="translate(0, 4) translate(0, -4)" style="fill: rgb(0, 0, 0); opacity: 0.25;"/></g></g></g></g></g><g id="container-svg container-footer-svg datawrapper-p7wPV-1la8dcw-svg"><text transform="translate(0, 578)"><tspan fill="rgb(136,136,136)" x="0" y="11" style="font-family: Roboto; font-weight: 400; font-stretch: 100%; font-size: 11px;">Created with</tspan><tspan fill="rgb(136,136,136)" dx="2.734375" style="font-family: Roboto; font-weight: 400; font-stretch: 100%; font-size: 11px;">Datawrapper</tspan></text></g></g></g></g></svg>